<svg width="208" height="50" viewBox="0 0 208 50" fill="none" xmlns="http://www.w3.org/2000/svg">
<path d="M16.08 17.46C13.24 17.46 11.12 18.26 9.68 19.98V17.82H2.44V47.26H10.04V37.58C11.52 39.1 13.56 39.86 16.08 39.86C21.96 39.86 26.72 35.54 26.72 28.66C26.72 21.78 21.96 17.46 16.08 17.46ZM14.48 33.82C11.92 33.82 9.92 31.94 9.92 28.66C9.92 25.38 11.92 23.5 14.48 23.5C17.04 23.5 19.04 25.38 19.04 28.66C19.04 31.94 17.04 33.82 14.48 33.82ZM37.4925 20.42V17.82H30.2525V39.5H37.8525V29.54C37.8525 25.74 39.9725 24.18 43.0525 24.18C43.6125 24.18 44.0925 24.22 44.7725 24.3V17.46C41.5725 17.46 39.0525 18.46 37.4925 20.42ZM58.5934 39.86C65.7534 39.86 70.8334 35.18 70.8334 28.62C70.8334 22.1 65.7534 17.46 58.5934 17.46C51.5134 17.46 46.3534 22.1 46.3534 28.62C46.3534 35.18 51.5134 39.86 58.5934 39.86ZM58.5934 33.82C56.0334 33.82 54.0334 31.94 54.0334 28.62C54.0334 25.34 56.0334 23.5 58.5934 23.5C61.1934 23.5 63.1534 25.34 63.1534 28.62C63.1534 31.94 61.1934 33.82 58.5934 33.82ZM89.7941 9.82V19.7C88.3541 18.18 86.3141 17.46 83.7941 17.46C77.8741 17.46 73.1141 21.74 73.1141 28.62C73.1141 35.54 77.8741 39.86 83.7941 39.86C86.5941 39.86 88.7141 39.06 90.1541 37.34V39.5H97.3941V9.82H89.7941ZM85.3941 33.82C82.7941 33.82 80.8341 31.94 80.8341 28.62C80.8341 25.34 82.7941 23.5 85.3941 23.5C87.9541 23.5 89.9141 25.34 89.9141 28.62C89.9141 31.94 87.9541 33.82 85.3941 33.82Z" fill="black"/>
<path d="M118.52 33.3C117.88 33.74 117.04 33.98 116.2 33.98C114.84 33.98 113.92 33.1 113.92 31.5V24.3H118.88V18.62H113.92V12.98H106.32V18.62H103.16V24.3H106.32V31.58C106.32 37.14 109.56 39.86 115.12 39.86C117.12 39.86 119.08 39.46 120.4 38.62L118.52 33.3ZM144.866 28.7C144.866 21.54 139.666 17.46 133.266 17.46C126.426 17.46 121.346 22.1 121.346 28.62C121.346 35.1 126.346 39.86 134.066 39.86C138.186 39.86 141.226 38.66 143.306 36.34L139.306 32.18C137.826 33.46 136.426 34.06 134.306 34.06C131.506 34.06 129.626 32.78 128.986 30.58H144.746C144.786 29.98 144.866 29.26 144.866 28.7ZM133.306 22.86C135.666 22.86 137.346 24.3 137.746 26.58H128.866C129.306 24.3 130.946 22.86 133.306 22.86ZM156.25 39.86C163.29 39.86 166.97 36.74 166.97 32.74C166.97 24.14 154.21 27.38 154.21 24.38C154.21 23.58 155.13 22.86 157.69 22.86C159.61 22.86 161.77 23.26 163.93 24.46L166.21 19.3C164.05 18.1 160.69 17.46 157.65 17.46C150.85 17.46 147.09 20.58 147.09 24.66C147.09 33.34 159.89 30.02 159.89 32.94C159.89 33.86 159.05 34.42 156.49 34.42C153.85 34.42 150.93 33.66 148.93 32.42L146.65 37.62C148.77 38.94 152.57 39.86 156.25 39.86ZM183.325 33.3C182.685 33.74 181.845 33.98 181.005 33.98C179.645 33.98 178.725 33.1 178.725 31.5V24.3H183.685V18.62H178.725V12.98H171.125V18.62H167.965V24.3H171.125V31.58C171.125 37.14 174.365 39.86 179.925 39.86C181.925 39.86 183.885 39.46 185.205 38.62L183.325 33.3ZM196.015 39.86C203.055 39.86 206.735 36.74 206.735 32.74C206.735 24.14 193.975 27.38 193.975 24.38C193.975 23.58 194.895 22.86 197.455 22.86C199.375 22.86 201.535 23.26 203.695 24.46L205.975 19.3C203.815 18.1 200.455 17.46 197.415 17.46C190.615 17.46 186.855 20.58 186.855 24.66C186.855 33.34 199.655 30.02 199.655 32.94C199.655 33.86 198.815 34.42 196.255 34.42C193.615 34.42 190.695 33.66 188.695 32.42L186.415 37.62C188.535 38.94 192.335 39.86 196.015 39.86Z" fill="#2087ED"/>
</svg>
